# xmcd CD database file
#
# Track frame offsets:
#	150
#	14569
#	30505
#	46180
#	58649
#	75155
#	97912
#	114282
#	131695
#	153702
#	167668
#
# Disc length: 2470 seconds
#
# Revision: 0
# Processed by: cddbd v1.5.2PL0 Copyright (c) Steve Scherf et al.
# Submitted via: CDex 1.50beta10
#
DISCID=7a09a40b
DTITLE=Donavon Frankenreiter - Pass It Around
DYEAR=2008
DGENRE=Blues
TTITLE0=Life, Love and Laughter
TTITLE1=Too Much Water
TTITLE2=Come With Me
TTITLE3=Your Heart
TTITLE4=Hit The Ground Running
TTITLE5=Mansions On The Sand
TTITLE6=Someones Something
TTITLE7=Sing A Song
TTITLE8=Pass It Around
TTITLE9=Come Together
TTITLE10=Everything To Me bonus
EXTD=YEAR: 2008
EXTT0=
EXTT1=
EXTT2=
EXTT3=
EXTT4=
EXTT5=
EXTT6=
EXTT7=
EXTT8=
EXTT9=
EXTT10=
PLAYORDER=
